PathFileType	4	(X/Y/Z)	Patient4_TMGait_0pt5_02_right_36.trc.trc
DataRate	CameraRate	NumFrames	NumMarkers	Units	OrigDataRate	OrigDataStartFrame	OrigNumFrames
77.777777777778	77.777777777778	4	33	mm	77.777777777778	53	       141
Frame#	Time	Sacral			L.Shoulder			Chest			R.Shoulder			Neck			R.ASIS			L.ASIS			R.Thigh.Superior			R.Thigh.Lateral			R.Thigh.Inferior			R.Patella			L.Thigh.Superior			L.Thigh.Lateral			L.Thigh.Inferior			L.Patella			L.Shank.Superior			L.Shank.Lateral			L.Shank.Inferior			R.Shank.Superior			R.Shank.Lateral			R.Shank.Inferior			R.Heel			R.Midfoot.Superior			R.Midfoot.Lateral			R.Toe			L.Heel			L.Midfoot.Lateral			L.Midfoot.Superior			L.Toe			L.Elbow			L.Wrist			R.Elbow			R.Wrist			
		X1	Y1	Z1	X2	Y2	Z2	X3	Y3	Z3	X4	Y4	Z4	X5	Y5	Z5	X6	Y6	Z6	X7	Y7	Z7	X8	Y8	Z8	X9	Y9	Z9	X10	Y10	Z10	X11	Y11	Z11	X12	Y12	Z12	X13	Y13	Z13	X14	Y14	Z14	X15	Y15	Z15	X16	Y16	Z16	X17	Y17	Z17	X18	Y18	Z18	X19	Y19	Z19	X20	Y20	Z20	X21	Y21	Z21	X22	Y22	Z22	X23	Y23	Z23	X24	Y24	Z24	X25	Y25	Z25	X26	Y26	Z26	X27	Y27	Z27	X28	Y28	Z28	X29	Y29	Z29	X30	Y30	Z30	X31	Y31	Z31	X32	Y32	Z32	X33	Y33	Z33	

53	47.688571428571	748.223059847742	1011.252754517613	536.971565368723	908.137344750233	1448.830548892372	371.330302259424	1025.836630150398	1367.946556727516	516.435649605086	960.640938394434	1428.045440963427	703.544738752510	923.741340860263	1500.311766079004	526.277478591334	982.044404084863	944.720874322093	635.262444273871	948.300507262729	971.282753666064	363.624487359164	1007.711067388483	741.953901116001	604.693908970713	922.498508214577	636.284547144910	666.169937146558	994.776535615044	581.296147613229	585.059633300351	988.881235206575	494.229174331767	590.700891531569	1025.528150384849	781.748333879539	377.450534087767	967.898196712625	656.779698308572	301.540155054242	1073.510490430433	592.700601417710	352.459364926034	1093.383317358897	515.775930037034	342.819439311850	1054.377596711514	441.880311549955	335.190131116393	943.906963940869	342.670814665455	292.805337283201	997.314124444875	220.124351957693	340.115173469220	960.521755390853	406.360860669870	595.491926782210	885.269350786110	302.068954181169	651.543861562327	930.538257926365	208.514014446799	587.476360585227	796.893687587971	42.895691736824	548.651392251439	969.554414579858	99.000806102125	585.301459551350	880.860149661211	36.393569158732	622.872918371790	1088.555820440864	46.468698894814	609.647160294678	866.642967828389	65.471871976220	387.986136766695	924.298186283081	66.342157292753	295.716816404971	1013.516016601415	124.147122824804	309.155384324715	1129.685239102371	72.816848950488	253.581290187529	854.669343453171	1097.520060228831	249.078613548095	922.705605962486	846.150320656265	232.552654995765	1037.245455829135	1083.438406188564	804.619746584390	1243.420724599896	926.332031148730	777.359872791667	
54	47.701428571429	747.187157609031	1011.422168257950	537.544678359574	907.210632527399	1448.574496721282	371.443703139246	1025.514084249326	1367.498208558818	515.924057876649	961.409396021648	1427.726062033579	703.358335333602	923.730080480505	1500.084735851075	526.288464954813	981.235240377412	944.368130236177	635.014053368839	946.806537352618	971.132472539960	363.437120316766	1005.152038764666	741.264551038527	604.083799875777	919.560703226057	636.083678727712	666.166402276883	990.784810921377	580.638069491523	584.807123493579	984.227839210536	493.741377794667	590.527035592007	1023.958016096720	782.028116404173	377.886513773184	967.550518813457	657.217425301718	301.056663490802	1072.638082871105	593.451910331824	353.650328106841	1094.129339778173	518.385849985709	343.679290081992	1058.518106474775	444.385145628839	335.243712100252	953.881585541558	339.922475150459	290.970045381550	1013.106543747463	219.827397325284	338.347655011815	955.511208357791	405.893493113878	595.340232377987	879.933592090099	301.930965717953	651.501008424545	924.635883834807	208.185820064522	587.341720492305	790.421053812398	42.862042548913	548.640636558614	963.059630628289	98.898890453941	585.222373550165	874.379762020735	36.376854062038	622.887650594504	1082.055673750827	46.399459707935	609.682810366263	889.914076784764	58.688077902089	384.042850505966	949.002226952237	62.279031290394	292.706384019779	1035.143240153030	124.314644419362	307.411357197742	1154.500754367613	78.501748890380	253.833407369149	847.258033938381	1097.910623676257	250.807707123239	899.888003243790	843.306826870264	233.027535082923	1044.914740372330	1085.398799080791	804.350806207305	1259.726230430754	941.378413883264	773.216098673761	
55	47.714285714286	746.162592342695	1011.583966827956	537.940838858726	906.442406038789	1448.307731993332	371.351207789850	1025.255167068236	1366.988099575919	515.252677822317	962.163702225501	1427.357867820226	702.975551905094	923.813640124220	1499.816251523656	526.096975356150	980.397877110978	944.022009257216	634.678950633858	945.360596971680	970.874968348477	363.134784172848	1002.609511023290	740.533648798929	603.597697091531	916.493979510952	635.885499751242	666.141129451098	986.723460551396	579.961295505518	584.600345611868	979.500541430683	493.252642847203	590.379698238360	1022.251451206660	782.111586828416	378.384080579522	967.077433186395	657.513588720419	300.567482185950	1071.626607691137	593.989792876144	354.785826106682	1094.584107924108	520.716495923490	344.664471078343	1062.274412622782	446.843568654937	335.550994625578	963.626601596533	337.582774088196	289.336883290965	1028.217667755279	220.195311861954	337.074583521641	950.404650016478	405.431654176614	595.204441394403	874.500667512675	301.798483283469	651.447653093701	918.672304278563	207.867629008753	587.229575506665	783.930207746880	42.828630342126	548.633169887161	956.532523762295	98.792943491996	585.133398314534	867.884834323826	36.354272349602	622.909498051277	1075.536377823757	46.357211704268	609.716812254090	912.362522393785	53.355546357859	380.575950906365	973.042539432094	59.334308797252	290.359854943671	1056.030309793649	125.225063231364	306.396088766920	1178.324653761481	84.596215397526	255.323359197611	839.763273188490	1098.598203892381	252.133492507065	877.896169088004	841.848161153247	233.474053621907	1052.054693869979	1087.379237093458	803.829446062433	1274.673577272509	957.085395781028	768.749465529186	
56	47.727142857143	745.170100570680	1011.747745024831	538.166813435295	905.833930153016	1448.043396582347	371.050896001034	1025.058287345706	1366.437963578504	514.426115484938	962.895543513447	1426.968591272037	702.396424693875	923.983520601573	1499.521609331237	525.702034327035	979.548285027262	943.691267641112	634.265122399692	943.975697328540	970.537723863250	362.722125328453	1000.093165660212	739.769959825769	603.237008894931	913.291917721630	635.698501372732	666.089279463645	982.602501348743	579.273323433816	584.438574823907	974.712153935972	492.764906127247	590.253123246543	1020.476006849714	782.063768211129	378.894664151480	966.512808793378	657.687175976741	300.100163236658	1070.580293411299	594.365613497877	355.777179088905	1094.823544320714	522.775222927717	345.717661652943	1065.667450030423	449.234859390453	336.064387221219	972.995618139453	335.670614325042	287.967353121164	1042.471939541538	221.151503414832	336.283712589371	945.216731702213	404.983093673821	595.079815592929	868.979173577464	301.679514232008	651.380681955639	912.654107617443	207.566826921815	587.136572245211	777.423623793186	42.796459467948	548.630114429588	949.976877072862	98.685744275839	585.036544033816	861.376278809544	36.328707016915	622.938604951760	1069.000667891641	46.343192235231	609.750384353421	933.671768818183	49.416010149582	377.698855758957	996.038645995732	57.411749573552	288.727188142420	1075.898503638493	126.751858051610	306.062295778621	1200.846573218739	90.882436944900	257.865725037703	832.189255428073	1099.612980471351	253.050718383185	856.934996383968	841.627820099462	233.909568251572	1058.700422021444	1089.374197607336	803.036754265982	1288.199789578036	973.314021966840	764.001092910393	
